<?xml version="1.0" encoding="UTF-8" standalone="no"?>
<svg xmlns="http://www.w3.org/2000/svg" width="32" height="32" viewBox="0 0 32 32.000001">
  <g transform="translate(0 -1020.3622)">
    <ellipse cx="-907.35657" cy="479.90009" fill="#384e54" color="#000" overflow="visible" rx="3.5793996" ry="3.8207953" style="isolation:auto;mix-blend-mode:normal;solid-color:#000;solid-opacity:1" transform="scale(-1 1) rotate(-60.548)"/>
    <ellipse cx="-891.57654" cy="507.8461" fill="#384e54" color="#000" overflow="visible" rx="3.5793996" ry="3.8207953" style="isolation:auto;mix-blend-mode:normal;solid-color:#000;solid-opacity:1" transform="rotate(-60.548)"/>
    <path fill="#384e54" d="M16.091693 1021.3642c-1.105749.01-2.210341.049-3.31609.09C6.8422558 1021.6738 2 1026.3942 2 1032.3622v20h28v-20c0-5.9683-4.667345-10.4912-10.59023-10.908-1.10575-.078-2.212328-.099-3.318077-.09z" color="#000" overflow="visible" style="isolation:auto;mix-blend-mode:normal;solid-color:#000;solid-opacity:1"/>
    <path fill="#76e1fe" d="M4.6078867 1025.0462c.459564.2595 1.818262 1.2013 1.980983 1.648.183401.5035.159385 1.0657-.114614 1.551-.346627.6138-1.005341.9487-1.696421.9365-.339886-.01-1.720283-.6372-2.042561-.8192-.97754-.5519-1.350795-1.7418-.833686-2.6576.517109-.9158 1.728749-1.2107 2.706299-.6587z" color="#000" overflow="visible" style="isolation:auto;mix-blend-mode:normal;solid-color:#000;solid-opacity:1"/>
    <rect width="3.0866659" height="3.5313663" x="14.406213" y="1035.6842" fill-opacity=".32850246" color="#000" overflow="visible" ry=".62426329" style="isolation:auto;mix-blend-mode:normal;solid-color:#000;solid-opacity:1"/>
    <path fill="#76e1fe" d="M16 1023.3622c-9 0-12 3.7153-12 9v20h24c-.04889-7.3562 0-18 0-20 0-5.2848-3-9-12-9z" color="#000" overflow="visible" style="isolation:auto;mix-blend-mode:normal;solid-color:#000;solid-opacity:1"/>
    <path fill="#76e1fe" d="M27.074073 1025.0462c-.45957.2595-1.818257 1.2013-1.980979 1.648-.183401.5035-.159384 1.0657.114614 1.551.346627.6138 1.005335.9487 1.696415.9365.33988-.01 1.72029-.6372 2.04256-.8192.97754-.5519 1.35079-1.7418.83369-2.6576-.51711-.9158-1.72876-1.2107-2.7063-.6587z" color="#000" overflow="visible" style="isolation:auto;mix-blend-mode:normal;solid-color:#000;solid-opacity:1"/>
    <circle cx="21.175734" cy="1030.3542" r="4.6537542" fill="#fff" color="#000" overflow="visible" style="isolation:auto;mix-blend-mode:normal;solid-color:#000;solid-opacity:1"/>
    <circle cx="10.339486" cy="1030.3542" r="4.8316345" fill="#fff" color="#000" overflow="visible" style="isolation:auto;mix-blend-mode:normal;solid-color:#000;solid-opacity:1"/>
    <rect width="3.6673687" height="4.1063409" x="14.115863" y="1035.9174" fill-opacity=".32941176" color="#000" overflow="visible" ry=".72590536" style="isolation:auto;mix-blend-mode:normal;solid-color:#000;solid-opacity:1"/>
    <rect width="3.6673687" height="4.1063409" x="14.115863" y="1035.2253" fill="#fffcfb" color="#000" overflow="visible" ry=".72590536" style="isolation:auto;mix-blend-mode:normal;solid-color:#000;solid-opacity:1"/>
    <path fill-opacity=".32941176" d="M19.999735 1036.5289c0 .838-.871228 1.2682-2.144766 1.1659-.02366 0-.04795-.6004-.254147-.5832-.503669.042-1.095902-.02-1.685964-.02-.612939 0-1.206342.1826-1.68549.017-.110233-.038-.178298.5838-.261532.5816-1.243685-.033-2.078803-.3383-2.078803-1.1618 0-1.2118 1.815635-2.1941 4.055351-2.1941 2.239704 0 4.055351.9823 4.055351 2.1941z" color="#000" overflow="visible" style="isolation:auto;mix-blend-mode:normal;solid-color:#000;solid-opacity:1"/>
    <path fill="#c38c74" d="M19.977414 1035.7004c0 .5685-.433659.8554-1.138091 1.0001-.291933.06-.630371.096-1.003719.1166-.56405.032-1.207782.031-1.89122.031-.672834 0-1.307182 0-1.864904-.029-.306268-.017-.589429-.043-.843164-.084-.813833-.1318-1.324962-.417-1.324962-1.0344 0-1.1601 1.805642-2.1006 4.03303-2.1006 2.227377 0 4.03303.9405 4.03303 2.1006z" color="#000" overflow="visible" style="isolation:auto;mix-blend-mode:normal;solid-color:#000;solid-opacity:1"/>
    <ellipse cx="15.944382" cy="1033.8501" fill="#23201f" color="#000" overflow="visible" rx="2.0801733" ry="1.343747" style="isolation:auto;mix-blend-mode:normal;solid-color:#000;solid-opacity:1"/>
    <circle cx="12.414201" cy="1030.3542" r="1.9630634" fill="#171311" color="#000" overflow="visible" style="isolation:auto;mix-blend-mode:normal;solid-color:#000;solid-opacity:1"/>
    <circle cx="23.110121" cy="1030.3542" r="1.9630634" fill="#171311" color="#000" overflow="visible" style="isolation:auto;mix-blend-mode:normal;solid-color:#000;solid-opacity:1"/>
    <path fill="none" stroke="#384e54" stroke-linecap="round" stroke-width=".39730874" d="M5.0055377 1027.2727c-1.170435-1.0835-2.026973-.7721-2.044172-.7463"/>
    <path fill="none" stroke="#384e54" stroke-linecap="round" stroke-width=".39730874" d="M4.3852457 1026.9152c-1.158557.036-1.346704.6303-1.33881.6523m23.5840973-.3951c1.17043-1.0835 2.02697-.7721 2.04417-.7463"/>
    <path fill="none" stroke="#384e54" stroke-linecap="round" stroke-width=".39730874" d="M27.321773 1026.673c1.15856.036 1.3467.6302 1.3388.6522"/>
  </g>
</svg>